PathFileType	4	(X/Y/Z)	OpenSim_Sub11_EMGPreOp_Magnet.trc
DataRate	CameraRate	NumFrames	NumMarkers	Units	OrigDataRate	OrigDataStartFrame	OrigNumFrames
100	100	20	8	m	100	2943	5885
Frame#	Time	torso_imu_offset_imu	pelvis_imu_offset_imu	tibia_r_imu_offset_imu	femur_r_imu_offset_imu	tibia_l_imu_offset_imu	femur_l_imu_offset_imu	toes_r_imu_offset_imu	toes_l_imu_offset_imu
				X1	Y1	Z1	X2	Y2	Z2	X3	Y3	Z3	X4	Y4	Z4	X5	Y5	Z5	X6	Y6	Z6	X7	Y7	Z7	X8		Y8	Z8	

2943	29.42000000	-0.92407734	-0.21068552	0.05352422	-0.51312658	0.07313822	-0.66982281	-0.46665392	-0.62435922	-0.31791797	-0.57111769	-0.62615977	0.02379339	-0.72334766	0.37254842	0.19498507	-0.69139025	0.07236995	0.41474087	-0.66547776	-0.43634243	-0.41540222	-0.72841011	-0.09254450	-0.31852794
2944	29.43000000	-0.92244409	-0.21391027	0.05391788	-0.51373217	0.08004184	-0.67798014	-0.46058719	-0.62756536	-0.32207473	-0.57823544	-0.61438164	0.01450872	-0.72238831	0.37758614	0.18651952	-0.68962318	0.08050631	0.40659302	-0.66810606	-0.43351414	-0.41987581	-0.72785160	-0.08850643	-0.32945017
2945	29.44000000	-0.92355939	-0.21586188	0.04945113	-0.51296313	0.08141032	-0.66783217	-0.44940175	-0.63680682	-0.32763306	-0.58578630	-0.60820120	0.02100263	-0.72074786	0.37668733	0.19973914	-0.68914941	0.08391981	0.41456949	-0.67306487	-0.44134227	-0.40363177	-0.72774689	-0.09043472	-0.32109413
2946	29.45000000	-0.92408642	-0.21592044	0.05427047	-0.51117659	0.08641796	-0.67333085	-0.43412125	-0.64423508	-0.32942689	-0.59086767	-0.59775901	0.01885009	-0.71478785	0.37903732	0.19934024	-0.68456873	0.09115554	0.41386413	-0.67392566	-0.44341330	-0.39386991	-0.72462910	-0.08780900	-0.32567629
2947	29.46000000	-0.91974179	-0.21640281	0.05270217	-0.50887393	0.08636845	-0.67141142	-0.42704972	-0.64619103	-0.33514530	-0.59893610	-0.59182132	0.01497700	-0.71293732	0.37667632	0.20274835	-0.68418100	0.09231704	0.41395825	-0.68088641	-0.44459017	-0.38338615	-0.72645793	-0.08821324	-0.32421224
2948	29.47000000	-0.92156664	-0.21104131	0.05107398	-0.50682973	0.09349066	-0.66523200	-0.40901704	-0.64876478	-0.34047447	-0.60646944	-0.57684012	0.02219833	-0.71219872	0.38109724	0.21165663	-0.68196747	0.10039254	0.42100590	-0.68539916	-0.44349760	-0.36469717	-0.72327698	-0.08415383	-0.31964598
2949	29.48000000	-0.92191178	-0.21610191	0.05137549	-0.50652806	0.09431917	-0.66920271	-0.40149463	-0.66009172	-0.33764553	-0.61700550	-0.56855228	0.01694310	-0.71524614	0.37893151	0.20859999	-0.67943175	0.10263782	0.42425009	-0.69406800	-0.44468674	-0.35071469	-0.72517204	-0.08643170	-0.32673734
2950	29.49000000	-0.92173131	-0.21725368	0.05104407	-0.50138692	0.10247732	-0.67713421	-0.38926421	-0.66688923	-0.33487987	-0.62210621	-0.55195307	0.00942178	-0.70931126	0.38408631	0.20725289	-0.67627333	0.10930466	0.41515700	-0.69801793	-0.44120623	-0.34117776	-0.72318639	-0.08073464	-0.33250635
2951	29.50000000	-0.92391199	-0.22483778	0.05218687	-0.50656285	0.10756770	-0.67560382	-0.37784426	-0.67434231	-0.33535479	-0.63423350	-0.53661802	0.00784443	-0.71518260	0.38793128	0.21153051	-0.67867983	0.11670849	0.41805316	-0.70979106	-0.44280341	-0.31816703	-0.72779519	-0.07710352	-0.33249310
2952	29.51000000	-0.91986312	-0.21772998	0.05719206	-0.50582590	0.11419091	-0.67328276	-0.36416584	-0.67953478	-0.33176436	-0.64435034	-0.52375711	0.00636038	-0.71461251	0.38885641	0.21449744	-0.67866079	0.11948584	0.42299580	-0.71924934	-0.44460537	-0.29628838	-0.72921576	-0.07661903	-0.33360151
2953	29.52000000	-0.92051933	-0.21900336	0.05656168	-0.50932794	0.11105465	-0.67236463	-0.34845164	-0.68319482	-0.32913417	-0.65715725	-0.51976150	0.00579501	-0.71895649	0.38227074	0.21771158	-0.68069205	0.11542490	0.42814520	-0.72960237	-0.45488291	-0.27093996	-0.73551750	-0.08584893	-0.32902166
2954	29.53000000	-0.92051956	-0.21881589	0.05472452	-0.50116818	0.11203612	-0.67429180	-0.33999988	-0.69692117	-0.32140390	-0.66053257	-0.50938880	-0.00010032	-0.71527733	0.37569298	0.22093738	-0.67025657	0.11771141	0.42981236	-0.73318637	-0.45948494	-0.24411170	-0.73076142	-0.08543655	-0.33406317
2955	29.54000000	-0.91979651	-0.22305334	0.06139805	-0.50124472	0.10788232	-0.67545995	-0.32339413	-0.69900573	-0.32138461	-0.66822695	-0.50030179	-0.00304458	-0.71370412	0.37222710	0.21867275	-0.66804087	0.11798840	0.42857776	-0.73792068	-0.46681890	-0.22041118	-0.73017938	-0.08880864	-0.33784569
2956	29.55000000	-0.91758925	-0.22727225	0.05909720	-0.49960932	0.12019692	-0.67578245	-0.31405561	-0.70561544	-0.31526253	-0.67480014	-0.48296627	-0.00773522	-0.71550398	0.38016662	0.22249087	-0.66720700	0.13036487	0.43294444	-0.74341925	-0.46902589	-0.18688619	-0.73106105	-0.08174685	-0.33643893
2957	29.56000000	-0.91855708	-0.22480145	0.05956476	-0.49195623	0.12532596	-0.67520640	-0.30227930	-0.71525654	-0.30828824	-0.67688803	-0.46928379	-0.00352450	-0.70693771	0.37860726	0.23239816	-0.66034911	0.13541287	0.44273375	-0.73911647	-0.47701503	-0.15549731	-0.72531899	-0.08307961	-0.33680611
2958	29.57000000	-0.92064527	-0.22486353	0.06655201	-0.50219157	0.11720977	-0.67767650	-0.29027798	-0.71740829	-0.30118140	-0.69354750	-0.46564932	-0.00541763	-0.71701279	0.37112103	0.22895959	-0.66686630	0.13061618	0.44385070	-0.74971367	-0.49124068	-0.13254728	-0.73334981	-0.08807465	-0.34061443
2959	29.58000000	-0.91897902	-0.22651039	0.06606077	-0.49322737	0.12534783	-0.67703069	-0.27914205	-0.72232255	-0.29559541	-0.69366700	-0.44812116	-0.00584465	-0.71107821	0.37348249	0.22854696	-0.65593416	0.13856153	0.44444763	-0.74153671	-0.49581038	-0.10606793	-0.72682833	-0.08371812	-0.34142267
2960	29.59000000	-0.91461853	-0.23368880	0.06198518	-0.48757944	0.12737693	-0.67378257	-0.26684624	-0.73119675	-0.29276550	-0.69538076	-0.43534014	0.00444966	-0.70517673	0.37282458	0.23960171	-0.65027750	0.14225401	0.45320054	-0.73552028	-0.50413285	-0.07225101	-0.72449913	-0.08229581	-0.33630993
2961	29.60000000	-0.91742531	-0.23102793	0.06414799	-0.48483514	0.13752772	-0.67595054	-0.25541310	-0.73255234	-0.28857024	-0.69639953	-0.41805615	0.00332926	-0.70480220	0.38027743	0.23812700	-0.64272053	0.15355033	0.45008955	-0.72931995	-0.50958527	-0.05224288	-0.72176107	-0.07649166	-0.34182125
2962	29.61000000	-0.91847380	-0.22691705	0.07202012	-0.49022409	0.13490335	-0.67670100	-0.24043360	-0.73844950	-0.28646759	-0.70924175	-0.41286349	0.00445734	-0.71241819	0.37246433	0.23992082	-0.64782204	0.15099700	0.45544372	-0.73365463	-0.52010389	-0.04129831	-0.72996055	-0.07920441	-0.34073800
